<svg width="249" height="237" viewBox="0 0 249 237" fill="none" xmlns="http://www.w3.org/2000/svg">
<path d="M202.367 81.0728C201.124 82.316 201.582 84.8024 203.403 86.6238C205.213 88.4342 207.7 88.9031 208.943 87.649L247.616 48.9762C248.859 47.7329 248.401 45.2465 246.591 43.4251C244.769 41.6147 242.294 41.1458 241.04 42.3891L202.367 81.0728Z" fill="url(#paint0_linear_1907_40676)"/>
<path d="M202.367 81.0728C201.124 82.316 201.582 84.8024 203.403 86.6238C205.213 88.4342 207.7 88.9031 208.943 87.649L247.616 48.9762C248.859 47.7329 248.401 45.2465 246.591 43.4251C244.769 41.6147 242.294 41.1458 241.04 42.3891L202.367 81.0728Z" fill="url(#paint1_radial_1907_40676)"/>
<path d="M196.16 39.7397C195.822 40.7976 197.523 42.2917 199.977 43.0768C202.42 43.862 204.677 43.633 205.026 42.5752L215.55 9.74848C215.888 8.69062 214.187 7.19655 211.733 6.41137C209.29 5.62616 207.022 5.84429 206.684 6.90212L196.16 39.7397Z" fill="url(#paint2_linear_1907_40676)"/>
<path d="M196.16 39.7397C195.822 40.7976 197.523 42.2917 199.977 43.0768C202.42 43.862 204.677 43.633 205.026 42.5752L215.55 9.74848C215.888 8.69062 214.187 7.19655 211.733 6.41137C209.29 5.62616 207.022 5.84429 206.684 6.90212L196.16 39.7397Z" fill="url(#paint3_radial_1907_40676)"/>
<path d="M241.191 24.7445C241.191 35.5412 224.996 35.5412 224.996 24.7445C224.996 13.9478 241.191 13.9478 241.191 24.7445Z" fill="url(#paint4_linear_1907_40676)"/>
<path d="M241.191 24.7445C241.191 35.5412 224.996 35.5412 224.996 24.7445C224.996 13.9478 241.191 13.9478 241.191 24.7445Z" fill="url(#paint5_radial_1907_40676)"/>
<path d="M46.6321 81.0728C47.8753 82.316 47.4173 84.8024 45.5961 86.6238C43.7857 88.4342 41.2991 88.9031 40.0559 87.649L1.38305 48.9762C0.139803 47.7329 0.597836 45.2465 2.40819 43.4251C4.22943 41.6147 6.70514 41.1458 7.95924 42.3891L46.6321 81.0728Z" fill="url(#paint6_linear_1907_40676)"/>
<path d="M46.6321 81.0728C47.8753 82.316 47.4173 84.8024 45.5961 86.6238C43.7857 88.4342 41.2991 88.9031 40.0559 87.649L1.38305 48.9762C0.139803 47.7329 0.597836 45.2465 2.40819 43.4251C4.22943 41.6147 6.70514 41.1458 7.95924 42.3891L46.6321 81.0728Z" fill="url(#paint7_radial_1907_40676)"/>
<path d="M52.8354 39.7397C53.1735 40.7976 51.4722 42.2917 49.0184 43.0768C46.5755 43.862 44.318 43.633 43.9691 42.5752L33.4451 9.74848C33.1071 8.69062 34.8083 7.19655 37.2622 6.41137C39.705 5.62616 41.9734 5.84429 42.3115 6.90212L52.8354 39.7397Z" fill="url(#paint8_linear_1907_40676)"/>
<path d="M52.8354 39.7397C53.1735 40.7976 51.4722 42.2917 49.0184 43.0768C46.5755 43.862 44.318 43.633 43.9691 42.5752L33.4451 9.74848C33.1071 8.69062 34.8083 7.19655 37.2622 6.41137C39.705 5.62616 41.9734 5.84429 42.3115 6.90212L52.8354 39.7397Z" fill="url(#paint9_radial_1907_40676)"/>
<path d="M24.0036 24.7445C24.0036 35.5412 7.80859 35.5412 7.80859 24.7445C7.80859 13.9478 24.0036 13.9478 24.0036 24.7445Z" fill="url(#paint10_linear_1907_40676)"/>
<path d="M24.0036 24.7445C24.0036 35.5412 7.80859 35.5412 7.80859 24.7445C7.80859 13.9478 24.0036 13.9478 24.0036 24.7445Z" fill="url(#paint11_radial_1907_40676)"/>
<path d="M213.762 109.449C213.533 109.308 212.813 109.068 212.682 108.991L182.703 91.7059C186.619 83.3956 188.822 74.115 188.822 64.3217C188.822 28.8008 160.032 0 124.5 0C88.9791 0 60.1782 28.7897 60.1782 64.3217C60.1782 74.0714 62.3594 83.2977 66.2419 91.575L36.034 108.991C35.8704 109.079 35.3687 109.373 35.2487 109.449C34.8125 109.7 34.5508 110.158 34.5508 110.66L48.5101 190.292C48.5101 190.794 48.7718 191.252 49.208 191.503L123.497 236.815C123.715 236.935 123.955 237 124.195 237C124.304 237 124.402 236.945 124.5 236.913C124.609 236.935 124.707 237 124.805 237C125.045 237 125.285 236.935 125.503 236.815L199.803 191.503C200.228 191.252 200.501 190.794 200.501 190.292L214.46 110.66C214.46 110.158 214.198 109.7 213.762 109.449ZM107.683 40.524C116.952 40.524 124.477 48.0271 124.488 57.297C124.51 48.0271 132.024 40.524 141.305 40.524C150.585 40.524 158.121 48.0489 158.121 57.3405C158.132 85.3792 124.499 100.757 124.499 100.757C124.499 100.757 90.8765 85.3797 90.8765 57.3405C90.8656 48.0489 98.4019 40.524 107.683 40.524ZM122.798 233.185L51.2901 189.498L37.3308 113.082L122.787 165.155L122.798 233.185ZM124.499 162.908L38.725 110.658L67.4728 94.0817C78.2259 114.617 99.7216 128.642 124.499 128.642C149.234 128.642 170.685 114.672 181.448 94.2129L210.12 110.746L124.499 162.908ZM197.71 189.496L126.202 233.183V165.154L211.658 113.08L197.71 189.496Z" fill="url(#paint12_linear_1907_40676)"/>
<path d="M213.762 109.449C213.533 109.308 212.813 109.068 212.682 108.991L182.703 91.7059C186.619 83.3956 188.822 74.115 188.822 64.3217C188.822 28.8008 160.032 0 124.5 0C88.9791 0 60.1782 28.7897 60.1782 64.3217C60.1782 74.0714 62.3594 83.2977 66.2419 91.575L36.034 108.991C35.8704 109.079 35.3687 109.373 35.2487 109.449C34.8125 109.7 34.5508 110.158 34.5508 110.66L48.5101 190.292C48.5101 190.794 48.7718 191.252 49.208 191.503L123.497 236.815C123.715 236.935 123.955 237 124.195 237C124.304 237 124.402 236.945 124.5 236.913C124.609 236.935 124.707 237 124.805 237C125.045 237 125.285 236.935 125.503 236.815L199.803 191.503C200.228 191.252 200.501 190.794 200.501 190.292L214.46 110.66C214.46 110.158 214.198 109.7 213.762 109.449ZM107.683 40.524C116.952 40.524 124.477 48.0271 124.488 57.297C124.51 48.0271 132.024 40.524 141.305 40.524C150.585 40.524 158.121 48.0489 158.121 57.3405C158.132 85.3792 124.499 100.757 124.499 100.757C124.499 100.757 90.8765 85.3797 90.8765 57.3405C90.8656 48.0489 98.4019 40.524 107.683 40.524ZM122.798 233.185L51.2901 189.498L37.3308 113.082L122.787 165.155L122.798 233.185ZM124.499 162.908L38.725 110.658L67.4728 94.0817C78.2259 114.617 99.7216 128.642 124.499 128.642C149.234 128.642 170.685 114.672 181.448 94.2129L210.12 110.746L124.499 162.908ZM197.71 189.496L126.202 233.183V165.154L211.658 113.08L197.71 189.496Z" fill="url(#paint13_radial_1907_40676)"/>
<defs>
<linearGradient id="paint0_linear_1907_40676" x1="225.139" y1="46.8257" x2="213.119" y2="83.0095" gradientUnits="userSpaceOnUse">
<stop offset="0.0192796" stop-color="#FD8240"/>
<stop offset="0.972407" stop-color="#EE4B2F"/>
</linearGradient>
<radialGradient id="paint1_radial_1907_40676" cx="0" cy="0" r="1" gradientUnits="userSpaceOnUse" gradientTransform="translate(224.845 84.1538) rotate(-90.1046) scale(53.6592 45.8256)">
<stop stop-color="white" stop-opacity="0"/>
<stop offset="1" stop-color="white" stop-opacity="0.1"/>
</radialGradient>
<linearGradient id="paint2_linear_1907_40676" x1="205.917" y1="10.0766" x2="191.204" y2="33.0217" gradientUnits="userSpaceOnUse">
<stop offset="0.0192796" stop-color="#FD8240"/>
<stop offset="0.972407" stop-color="#EE4B2F"/>
</linearGradient>
<radialGradient id="paint3_radial_1907_40676" cx="0" cy="0" r="1" gradientUnits="userSpaceOnUse" gradientTransform="translate(205.794 40.1598) rotate(-90.0542) scale(43.2446 19.1328)">
<stop stop-color="white" stop-opacity="0"/>
<stop offset="1" stop-color="white" stop-opacity="0.1"/>
</radialGradient>
<linearGradient id="paint4_linear_1907_40676" x1="233.145" y1="18.4284" x2="228.974" y2="30.9879" gradientUnits="userSpaceOnUse">
<stop offset="0.0192796" stop-color="#FD8240"/>
<stop offset="0.972407" stop-color="#EE4B2F"/>
</linearGradient>
<radialGradient id="paint5_radial_1907_40676" cx="0" cy="0" r="1" gradientUnits="userSpaceOnUse" gradientTransform="translate(233.043 31.3844) rotate(-90.1047) scale(18.6243 15.9097)">
<stop stop-color="white" stop-opacity="0"/>
<stop offset="1" stop-color="white" stop-opacity="0.1"/>
</radialGradient>
<linearGradient id="paint6_linear_1907_40676" x1="24.1543" y1="46.8257" x2="12.1346" y2="83.0095" gradientUnits="userSpaceOnUse">
<stop offset="0.0192796" stop-color="#FD8240"/>
<stop offset="0.972407" stop-color="#EE4B2F"/>
</linearGradient>
<radialGradient id="paint7_radial_1907_40676" cx="0" cy="0" r="1" gradientUnits="userSpaceOnUse" gradientTransform="translate(23.8603 84.1538) rotate(-90.1046) scale(53.6592 45.8256)">
<stop stop-color="white" stop-opacity="0"/>
<stop offset="1" stop-color="white" stop-opacity="0.1"/>
</radialGradient>
<linearGradient id="paint8_linear_1907_40676" x1="43.2017" y1="10.0766" x2="28.4892" y2="33.0217" gradientUnits="userSpaceOnUse">
<stop offset="0.0192796" stop-color="#FD8240"/>
<stop offset="0.972407" stop-color="#EE4B2F"/>
</linearGradient>
<radialGradient id="paint9_radial_1907_40676" cx="0" cy="0" r="1" gradientUnits="userSpaceOnUse" gradientTransform="translate(43.0789 40.1598) rotate(-90.0542) scale(43.2446 19.1328)">
<stop stop-color="white" stop-opacity="0"/>
<stop offset="1" stop-color="white" stop-opacity="0.1"/>
</radialGradient>
<linearGradient id="paint10_linear_1907_40676" x1="15.9571" y1="18.4284" x2="11.7862" y2="30.9879" gradientUnits="userSpaceOnUse">
<stop offset="0.0192796" stop-color="#FD8240"/>
<stop offset="0.972407" stop-color="#EE4B2F"/>
</linearGradient>
<radialGradient id="paint11_radial_1907_40676" cx="0" cy="0" r="1" gradientUnits="userSpaceOnUse" gradientTransform="translate(15.8551 31.3844) rotate(-90.1047) scale(18.6243 15.9097)">
<stop stop-color="white" stop-opacity="0"/>
<stop offset="1" stop-color="white" stop-opacity="0.1"/>
</radialGradient>
<linearGradient id="paint12_linear_1907_40676" x1="125.073" y1="26.07" x2="50.1388" y2="197.356" gradientUnits="userSpaceOnUse">
<stop offset="0.0192796" stop-color="#2E78E9"/>
<stop offset="0.972407" stop-color="#2863FA"/>
</linearGradient>
<radialGradient id="paint13_radial_1907_40676" cx="0" cy="0" r="1" gradientUnits="userSpaceOnUse" gradientTransform="translate(123.939 215.67) rotate(-90.0795) scale(272.55 176.741)">
<stop stop-color="white" stop-opacity="0"/>
<stop offset="1" stop-color="white" stop-opacity="0.1"/>
</radialGradient>
</defs>
</svg>
