<svg width="29" height="28" viewBox="0 0 29 28" fill="none" xmlns="http://www.w3.org/2000/svg">
<g filter="url(#filter0_d_1715_35697)">
<path d="M28.2617 14.3919C28.2617 22.1168 21.7432 27.9889 14.0209 27.9994C6.5682 28.0099 0.473625 22.3052 0.0261486 14.8656C-0.463197 6.74032 5.97942 -0.000610352 14 -0.000610352C17.4934 -0.000610352 20.6833 1.2764 23.1353 3.39341C9.68222 3.72836 3.00148 16.7628 10.9906 20.4106C15.1095 22.2921 18.043 19.0185 18.3177 15.4386C19.1028 5.23303 23.028 6.01808 25.1215 6.80313C25.1215 6.80313 26.1682 7.58817 26.6916 8.37322C27.2149 9.15827 28.2617 12.4659 28.2617 14.3919Z" fill="url(#paint0_linear_1715_35697)"/>
<path d="M28.2617 14.3919C28.2617 22.1168 21.7432 27.9889 14.0209 27.9994C6.5682 28.0099 0.473625 22.3052 0.0261486 14.8656C-0.463197 6.74032 5.97942 -0.000610352 14 -0.000610352C17.4934 -0.000610352 20.6833 1.2764 23.1353 3.39341C9.68222 3.72836 3.00148 16.7628 10.9906 20.4106C15.1095 22.2921 18.043 19.0185 18.3177 15.4386C19.1028 5.23303 23.028 6.01808 25.1215 6.80313C25.1215 6.80313 26.1682 7.58817 26.6916 8.37322C27.2149 9.15827 28.2617 12.4659 28.2617 14.3919Z" fill="url(#paint1_radial_1715_35697)"/>
<path d="M18.758 15.4725C19.149 10.3894 20.3166 8.21415 21.4897 7.35577C22.6103 6.53584 23.883 6.81772 24.9053 7.19387C24.9324 7.21503 24.97 7.24464 25.0157 7.28159C25.1173 7.36364 25.2583 7.48115 25.4149 7.62201C25.7338 7.90909 26.0935 8.2722 26.3241 8.61817C26.4257 8.77047 26.5749 9.08469 26.7451 9.53126C26.9114 9.96772 27.0872 10.5021 27.2477 11.074C27.5714 12.2276 27.8201 13.4898 27.8201 14.3919C27.8201 21.8466 21.5264 27.5476 14.0203 27.5578C6.80029 27.5679 0.900312 22.0442 0.466941 14.839L0.466939 14.839C-0.00702777 6.96914 6.23224 0.440978 14 0.440978C16.9706 0.440978 19.7136 1.39392 21.9459 3.01396C15.6664 3.5208 10.9426 6.76218 8.64791 10.4252C7.43116 12.3676 6.88123 14.4575 7.19027 16.3317C7.50261 18.2259 8.68456 19.8431 10.8072 20.8123C13.012 21.8194 14.9541 21.4565 16.3723 20.3168C17.7665 19.1964 18.6131 17.3612 18.758 15.4725ZM18.758 15.4725L18.3177 15.4386M18.758 15.4725L18.3177 15.4386M18.3177 15.4386C19.1028 5.23303 23.028 6.01808 25.1215 6.80313L22.4776 3.42012C9.46661 4.15424 3.13277 16.8227 10.9906 20.4106C15.1095 22.2921 18.043 19.0185 18.3177 15.4386Z" stroke="black" stroke-opacity="0.05" stroke-width="0.883178"/>
</g>
<defs>
<filter id="filter0_d_1715_35697" x="-1.41308" y="-1.41369" width="31.0879" height="30.8262" filterUnits="userSpaceOnUse" color-interpolation-filters="sRGB">
<feFlood flood-opacity="0" result="BackgroundImageFix"/>
<feColorMatrix in="SourceAlpha" type="matrix" values="0 0 0 0 0 0 0 0 0 0 0 0 0 0 0 0 0 0 127 0" result="hardAlpha"/>
<feOffset/>
<feGaussianBlur stdDeviation="0.706542"/>
<feComposite in2="hardAlpha" operator="out"/>
<feColorMatrix type="matrix" values="0 0 0 0 0 0 0 0 0 0 0 0 0 0 0 0 0 0 0.04 0"/>
<feBlend mode="normal" in2="BackgroundImageFix" result="effect1_dropShadow_1715_35697"/>
<feBlend mode="normal" in="SourceGraphic" in2="effect1_dropShadow_1715_35697" result="shape"/>
</filter>
<linearGradient id="paint0_linear_1715_35697" x1="14.2199" y1="3.07939" x2="7.0623" y2="24.8337" gradientUnits="userSpaceOnUse">
<stop offset="0.0192796" stop-color="#2E78E9"/>
<stop offset="0.972407" stop-color="#2863FA"/>
</linearGradient>
<radialGradient id="paint1_radial_1715_35697" cx="0" cy="0" r="1" gradientUnits="userSpaceOnUse" gradientTransform="translate(14.0418 25.4794) rotate(-90.1056) scale(32.2001 27.7638)">
<stop stop-color="white" stop-opacity="0"/>
<stop offset="1" stop-color="white" stop-opacity="0.1"/>
</radialGradient>
</defs>
</svg>
